<svg id="Layer_1" data-name="Layer 1" xmlns="http://www.w3.org/2000/svg" viewBox="0 0 15 15"><defs><style>.cls-1{fill:#fff;}</style></defs><title>bulk-order-icon-wt_1</title><g id="Favorites_-_Orange" data-name="Favorites - Orange"><path class="cls-1" d="M4,6.4,3.86,7c0,.45-.09.89-.17,1.33a.56.56,0,0,0,.13.45c.47.64.91,1.3,1.4,1.94A3.62,3.62,0,0,1,5.68,12c.15.55.26,1.11.39,1.66a.64.64,0,1,1-1.24.3c-.18-.74-.35-1.48-.53-2.22a1,1,0,0,0-.18-.4L3.16,10c-.13.51-.26.95-.35,1.39a2.8,2.8,0,0,1-.41,1c-.4.59-.78,1.2-1.16,1.81a.64.64,0,0,1-.7.3A.53.53,0,0,1,.08,14a.92.92,0,0,1,.12-.54c.3-.53.63-1,1-1.55a3.14,3.14,0,0,0,.46-1.1c.14-.66.31-1.32.47-2a.38.38,0,0,0,0-.2,2.2,2.2,0,0,1,0-1.32c.1-.92.23-1.85.36-2.77a1,1,0,0,1,.76-.81,1,1,0,0,1,.9.73,1.63,1.63,0,0,0,.18.43c.29.45.59.89.89,1.32a.66.66,0,0,0,.33.24c.45.16.91.3,1.37.43a.53.53,0,0,1,.4.49.62.62,0,0,0,.14.28,1.24,1.24,0,0,0,1.28.4.72.72,0,0,1,.21,0l5.67,0c.35,0,.41.09.26.4L13.1,12a.43.43,0,0,1-.44.28H8.48c-.24,0-.34-.07-.37-.32-.09-.84-.19-1.68-.29-2.52,0-.31-.07-.63-.11-.94a.33.33,0,0,0-.11-.19c-.26-.21-.48-.52-.9-.4,0,0-.1,0-.15,0a7.76,7.76,0,0,0-.82-.25A2.09,2.09,0,0,1,4.06,6.47a.41.41,0,0,0,0-.09ZM14.4,8.5H12.85c-.23,0-.13.21-.15.33s0,.24.19.24c.36,0,.72,0,1.08,0,.08,0,.17-.09.23-.16S14.31,8.67,14.4,8.5Zm-1.47,2.88c-.32-.05-.17.23-.28.33h-4a1.14,1.14,0,0,0,0-.27.11.11,0,0,0-.09-.06.08.08,0,0,0-.08,0,.34.34,0,0,0,.28.49h3.55C12.76,11.91,12.78,11.89,12.93,11.38ZM12.73,10h.51c.45,0,.54-.07.62-.54H12.73Zm.67.42c-.69-.09-.82,0-.64.51C13.21,11,13.27,11,13.4,10.44ZM8.13,8.51c0,.54.07.61.38.55s.17-.32.13-.43C8.56,8.35,8.32,8.55,8.13,8.51Zm.12,1c0,.56,0,.56.39.5v-.5Zm.39,1.44v-.52l-.28,0C8.38,11,8.38,11,8.64,10.93Z"/><path class="cls-1" d="M9,2l.28,0c.91,0,1.82,0,2.73,0,.22,0,.28.06.28.28,0,.78,0,1.56,0,2.33,0,.19-.06.25-.24.25H9.2c-.12,0-.23,0-.23-.17C9,3.77,9,2.89,9,2Z"/><path class="cls-1" d="M10.2,7.86V5l.24,0h2.35c.23,0,.28.09.28.29q0,1.14,0,2.28c0,.21-.05.3-.28.3C11.94,7.85,11.08,7.86,10.2,7.86Z"/><path class="cls-1" d="M4.16,1.08A1.31,1.31,0,0,1,5.48,2.42a1.33,1.33,0,1,1-2.66,0A1.3,1.3,0,0,1,4.16,1.08Z"/><path class="cls-1" d="M10,7.86H8.36s-.13-.11-.13-.18c0-.82,0-1.65,0-2.48A.23.23,0,0,1,8.39,5c.52,0,1,0,1.59,0Z"/><path class="cls-1" d="M11.09.47a1.28,1.28,0,0,1,0,.18V1.73H8.63V.47Z"/><path class="cls-1" d="M8.5,12.48a.81.81,0,1,1,0,1.61.79.79,0,0,1-.79-.8A.77.77,0,0,1,8.5,12.48Zm0,.4a.4.4,0,0,0-.39.41.41.41,0,0,0,.39.4.43.43,0,0,0,.42-.42A.42.42,0,0,0,8.49,12.88Z"/><path class="cls-1" d="M13.37,13.29a.78.78,0,0,1-.79.8.82.82,0,0,1-.82-.81.81.81,0,0,1,.83-.8A.78.78,0,0,1,13.37,13.29Zm-.76-.41a.43.43,0,0,0-.45.39.44.44,0,0,0,.39.42.4.4,0,0,0,.42-.38A.4.4,0,0,0,12.61,12.88Z"/></g></svg>