<svg id="Layer_1" data-name="Layer 1" xmlns="http://www.w3.org/2000/svg" viewBox="0 0 25 25"><g id="Favorite"><polygon points="23.2 18.1 7.7 18.1 3.9 1.6 0.5 1.6 0.5 0.6 4.7 0.6 8.5 17.1 23.2 17.1 23.2 18.1"/><polygon points="22.4 13 6.8 13 6.8 12 21.6 12 23.8 4.2 4.3 4.2 4.3 3.2 25.2 3.2 22.4 13"/><path d="M11.2,24.4a2.4,2.4,0,0,1,0-4.8,2.4,2.4,0,1,1,0,4.8Zm0-3.8A1.4,1.4,0,0,0,9.8,22a1.5,1.5,0,0,0,1.4,1.4A1.4,1.4,0,0,0,12.6,22,1.4,1.4,0,0,0,11.2,20.6Z"/><path d="M20.1,24.4A2.4,2.4,0,1,1,22.5,22,2.4,2.4,0,0,1,20.1,24.4Zm0-3.8A1.4,1.4,0,0,0,18.7,22a1.4,1.4,0,0,0,1.4,1.4A1.5,1.5,0,0,0,21.5,22,1.4,1.4,0,0,0,20.1,20.6Z"/></g></svg>