<svg id="Layer_1" data-name="Layer 1" xmlns="http://www.w3.org/2000/svg" viewBox="0 0 30 30"><defs><style>.cls-1{fill:#ab1e56;}</style></defs><path class="cls-1" d="M25.4,20.8H11.6L5.3,2.9H.3v-1H6L8,7.7H30Zm-13.1-1H24.7L28.6,8.7H8.4Z"/><path class="cls-1" d="M22.7,28.1a2.8,2.8,0,1,1,0-5.5,2.8,2.8,0,1,1,0,5.5Zm0-4.5a1.8,1.8,0,0,0-1.8,1.7,1.8,1.8,0,0,0,3.6,0A1.8,1.8,0,0,0,22.7,23.6Z"/><path class="cls-1" d="M14.1,28.1a2.8,2.8,0,1,1,0-5.5,2.8,2.8,0,1,1,0,5.5Zm0-4.5a1.8,1.8,0,0,0-1.8,1.7,1.8,1.8,0,0,0,3.6,0A1.8,1.8,0,0,0,14.1,23.6Z"/></svg>