<svg id="Layer_1" data-name="Layer 1" xmlns="http://www.w3.org/2000/svg" viewBox="0 0 30 30"><defs><style>.cls-1{fill:#ab1e56;}</style></defs><path class="cls-1" d="M15,28.8l-.7-.2C14.2,28.5,0,19.9,0,10.8,0,5,3.2,1.2,8.1,1.2h0c3.1,0,5.6,2.4,6.9,3.7,1.3-1.3,3.9-3.7,6.9-3.7h0C26.8,1.2,30,5,30,10.8,30,20,15.8,28.5,15.6,28.6ZM8.1,2.2h0C2.9,2.2,1,6.7,1,10.8c0,8.5,13.7,16.9,13.8,16.9h.3c.2-.1,13.9-8.5,13.9-17,0-4.1-1.9-8.6-7.1-8.6h0c-3,0-5.5,2.7-6.5,3.8l-.4.5L14.6,6C13.7,4.9,11.1,2.2,8.1,2.2Z"/></svg>