<?xml version="1.0" encoding="utf-8"?>
<!-- Generator: Adobe Illustrator 24.2.1, SVG Export Plug-In . SVG Version: 6.00 Build 0)  -->
<svg version="1.1" id="Layer_1" xmlns="http://www.w3.org/2000/svg" xmlns:xlink="http://www.w3.org/1999/xlink" x="0px" y="0px"
	 viewBox="0 0 30 30" style="enable-background:new 0 0 30 30;" xml:space="preserve">
<style type="text/css">
	.st0{fill:#373737;}
	.st1{fill:none;stroke:#414042;stroke-miterlimit:10;}
</style>
<g>
	<g>
		<g>
			<path class="st0" d="M14.91,17.01c-4.69,0-8.5-3.81-8.5-8.5S10.22,0,14.91,0s8.5,3.81,8.5,8.5S19.6,17.01,14.91,17.01z M14.91,1
				c-4.14,0-7.5,3.37-7.5,7.5s3.37,7.5,7.5,7.5s7.5-3.37,7.5-7.5S19.04,1,14.91,1z"/>
		</g>
		<g>
			<path class="st0" d="M29.3,30h-6.75v-1h5.74c-0.26-5-4.41-8.99-9.48-8.99h-7.62C6.13,20.01,1.98,24,1.71,29H6.9v1H0.7v-0.5
				c0-5.78,4.71-10.49,10.49-10.49h7.62c5.78,0,10.49,4.71,10.49,10.49V30z"/>
		</g>
	</g>
</g>
</svg>
