<svg id="Layer_1" data-name="Layer 1" xmlns="http://www.w3.org/2000/svg" viewBox="0 0 512 512"><defs><style>.cls-1{fill:#373737;}</style></defs><path class="cls-1" d="M255.1,288.7c-79.2,0-143.7-64.4-143.7-143.6S175.9,1.5,255.1,1.5,398.7,65.9,398.7,145.1,334.2,288.7,255.1,288.7Zm0-273.2c-71.5,0-129.7,58.1-129.7,129.6s58.2,129.6,129.7,129.6,129.6-58.1,129.6-129.6S326.5,15.5,255.1,15.5Z"/><path class="cls-1" d="M499,510.5H386.5v-14h98.4c-3.7-88-76.4-158.4-165.3-158.4H192.4c-88.9,0-161.6,70.4-165.3,158.4h92.5v14H13v-7c0-98.9,80.5-179.4,179.4-179.4H319.6c98.9,0,179.4,80.5,179.4,179.4Z"/></svg>