<svg id="Layer_1" data-name="Layer 1" xmlns="http://www.w3.org/2000/svg" viewBox="0 0 15 15"><defs><style>.cls-1{fill:none;stroke:#212121;stroke-linecap:round;stroke-miterlimit:10;stroke-width:0.5px;}</style></defs><title>wallet</title><g id="Favorites_-_Orange" data-name="Favorites - Orange"><path class="cls-1" d="M14.46,4V11a1.65,1.65,0,0,1-1.66,1.65H2.19A1.65,1.65,0,0,1,.54,11V4A1.65,1.65,0,0,1,2.19,2.39H12.8A1.65,1.65,0,0,1,14.46,4Z"/><path class="cls-1" d="M12.86,4V11a1.65,1.65,0,0,1-1.66,1.65h-9A1.65,1.65,0,0,1,.54,11V4A1.65,1.65,0,0,1,2.19,2.39h9A1.65,1.65,0,0,1,12.86,4Z"/><path class="cls-1" d="M14.46,5.28H11.52A2.22,2.22,0,0,0,9.3,7.5h0a2.22,2.22,0,0,0,2.22,2.23h2.94"/><circle class="cls-1" cx="11.28" cy="7.5" r="0.69"/></g></svg>